<svg xmlns="http://www.w3.org/2000/svg" xmlns:xlink="http://www.w3.org/1999/xlink" version="1.1" width="1024" height="1024" viewBox="0 0 1024 1024" xml:space="preserve">
<desc>Created with Fabric.js 3.5.0</desc>
<defs>
</defs>
<rect x="0" y="0" width="100%" height="100%" fill="rgba(255,255,255,0)"/>
<g transform="matrix(1 0 0 1 501.1325 479.1957)" style="" id="712065">
		
<path xml:space="preserve" font-family="Lato" font-size="114" font-style="normal" font-weight="bold" style="stroke: none; stroke-width: 1; stroke-dasharray: none; stroke-linecap: butt; stroke-dashoffset: 0; stroke-linejoin: miter; stroke-miterlimit: 4; is-custom-font: none; font-file-url: none; fill: rgb(255,255,255); fill-rule: nonzero; opacity: 1; white-space: pre;" d="M-320.51-46.61L-320.51 23.16L-287.51 23.16L-287.51 35.81L-335.84 35.81L-335.84-46.61L-320.51-46.61ZM-202.41-5.40L-202.41-5.40Q-202.41 3.66-205.43 11.39Q-208.45 19.11-213.92 24.75Q-219.39 30.40-227.09 33.56Q-234.78 36.72-244.13 36.72L-244.13 36.72Q-253.48 36.72-261.20 33.56Q-268.93 30.40-274.43 24.75Q-279.93 19.11-282.95 11.39Q-285.97 3.66-285.97-5.40L-285.97-5.40Q-285.97-14.46-282.95-22.19Q-279.93-29.91-274.43-35.55Q-268.93-41.20-261.20-44.36Q-253.48-47.52-244.13-47.52L-244.13-47.52Q-234.78-47.52-227.09-44.33Q-219.39-41.14-213.92-35.52Q-208.45-29.91-205.43-22.19Q-202.41-14.46-202.41-5.40ZM-218.14-5.40L-218.14-5.40Q-218.14-12.18-219.93-17.57Q-221.73-22.96-225.09-26.72Q-228.46-30.48-233.27-32.47Q-238.09-34.47-244.13-34.47L-244.13-34.47Q-250.17-34.47-255.02-32.47Q-259.86-30.48-263.25-26.72Q-266.65-22.96-268.47-17.57Q-270.29-12.18-270.29-5.40L-270.29-5.40Q-270.29 1.38-268.47 6.77Q-266.65 12.16-263.25 15.89Q-259.86 19.62-255.02 21.62Q-250.17 23.61-244.13 23.61L-244.13 23.61Q-238.09 23.61-233.27 21.62Q-228.46 19.62-225.09 15.89Q-221.73 12.16-219.93 6.77Q-218.14 1.38-218.14-5.40ZM-152.48 24.53L-152.48 24.53Q-147.29 24.53-143.44 23.59Q-139.59 22.64-136.12 20.99L-136.12 20.99L-136.12 6.00L-146.43 6.00Q-147.92 6.00-148.77 5.17Q-149.63 4.35-149.63 3.15L-149.63 3.15L-149.63-5.51L-122.21-5.51L-122.21 27.83Q-125.34 30.11-128.73 31.79Q-132.13 33.47-135.97 34.56Q-139.82 35.64-144.21 36.18Q-148.60 36.72-153.67 36.72L-153.67 36.72Q-162.68 36.72-170.26 33.59Q-177.84 30.45-183.37 24.87Q-188.90 19.28-192.00 11.53Q-195.11 3.78-195.11-5.40L-195.11-5.40Q-195.11-14.69-192.09-22.44Q-189.07-30.19-183.51-35.78Q-177.95-41.37-170.03-44.44Q-162.11-47.52-152.25-47.52L-152.25-47.52Q-142.16-47.52-134.78-44.53Q-127.40-41.54-122.27-36.75L-122.27-36.75L-126.71-29.80Q-128.02-27.69-130.19-27.69L-130.19-27.69Q-131.56-27.69-132.98-28.60L-132.98-28.60Q-134.81-29.68-136.71-30.76Q-138.62-31.85-140.93-32.65Q-143.24-33.44-146.12-33.96Q-149.00-34.47-152.76-34.47L-152.76-34.47Q-158.86-34.47-163.79-32.42Q-168.72-30.37-172.20-26.55Q-175.67-22.73-177.56-17.37Q-179.44-12.01-179.44-5.40L-179.44-5.40Q-179.44 1.73-177.44 7.28Q-175.45 12.84-171.86 16.66Q-168.26 20.48-163.31 22.50Q-158.35 24.53-152.48 24.53ZM-28.84-5.40L-28.84-5.40Q-28.84 3.66-31.86 11.39Q-34.88 19.11-40.36 24.75Q-45.83 30.40-53.52 33.56Q-61.22 36.72-70.57 36.72L-70.57 36.72Q-79.91 36.72-87.64 33.56Q-95.36 30.40-100.86 24.75Q-106.36 19.11-109.38 11.39Q-112.40 3.66-112.40-5.40L-112.40-5.40Q-112.40-14.46-109.38-22.19Q-106.36-29.91-100.86-35.55Q-95.36-41.20-87.64-44.36Q-79.91-47.52-70.57-47.52L-70.57-47.52Q-61.22-47.52-53.52-44.33Q-45.83-41.14-40.36-35.52Q-34.88-29.91-31.86-22.19Q-28.84-14.46-28.84-5.40ZM-44.57-5.40L-44.57-5.40Q-44.57-12.18-46.37-17.57Q-48.17-22.96-51.53-26.72Q-54.89-30.48-59.71-32.47Q-64.52-34.47-70.57-34.47L-70.57-34.47Q-76.61-34.47-81.45-32.47Q-86.30-30.48-89.69-26.72Q-93.08-22.96-94.91-17.57Q-96.73-12.18-96.73-5.40L-96.73-5.40Q-96.73 1.38-94.91 6.77Q-93.08 12.16-89.69 15.89Q-86.30 19.62-81.45 21.62Q-76.61 23.61-70.57 23.61L-70.57 23.61Q-64.52 23.61-59.71 21.62Q-54.89 19.62-51.53 15.89Q-48.17 12.16-46.37 6.77Q-44.57 1.38-44.57-5.40ZM22.51-46.61L22.51 35.81L7.12 35.81L7.12-46.61L22.51-46.61ZM68.40 6.80L56.89 6.80L56.89 35.81L41.55 35.81L41.55-46.61L68.40-46.61Q76.66-46.61 82.71-44.67Q88.75-42.73 92.68-39.26Q96.61-35.78 98.50-30.94Q100.38-26.09 100.38-20.33L100.38-20.33Q100.38-14.35 98.38-9.36Q96.39-4.37 92.40-0.78Q88.41 2.81 82.42 4.80Q76.44 6.80 68.40 6.80L68.40 6.80ZM56.89-34.75L56.89-5.17L68.40-5.17Q72.62-5.17 75.75-6.23Q78.89-7.28 80.94-9.25Q82.99-11.21 84.02-14.03Q85.04-16.86 85.04-20.33L85.04-20.33Q85.04-23.64 84.02-26.32Q82.99-29.00 80.94-30.88Q78.89-32.76 75.75-33.76Q72.62-34.75 68.40-34.75L68.40-34.75L56.89-34.75ZM160.23-38.86L156.46-31.62Q155.84-30.37 155.01-29.85Q154.19-29.34 153.04-29.34L153.04-29.34Q151.91-29.34 150.48-30.22Q149.06-31.11 147.12-32.19Q145.18-33.27 142.59-34.16Q139.99-35.04 136.46-35.04L136.46-35.04Q133.27-35.04 130.90-34.27Q128.53-33.50 126.91-32.13Q125.29-30.76 124.49-28.85Q123.69-26.95 123.69-24.67L123.69-24.67Q123.69-21.76 125.31-19.82Q126.94-17.88 129.62-16.51Q132.30-15.15 135.72-14.06Q139.14-12.98 142.70-11.75Q146.26-10.53 149.68-8.90Q153.10-7.28 155.78-4.80Q158.46-2.32 160.08 1.27Q161.71 4.86 161.71 9.99L161.71 9.99Q161.71 15.58 159.80 20.45Q157.89 25.32 154.21 28.94Q150.54 32.56 145.24 34.64Q139.94 36.72 133.09 36.72L133.09 36.72Q129.16 36.72 125.34 35.95Q121.52 35.18 118.02 33.76Q114.51 32.33 111.46 30.34Q108.41 28.34 106.02 25.89L106.02 25.89L110.47 18.54Q111.09 17.74 111.98 17.20Q112.86 16.66 113.94 16.66L113.94 16.66Q115.37 16.66 117.02 17.83Q118.67 19.00 120.93 20.42Q123.18 21.85 126.23 23.02Q129.28 24.18 133.55 24.18L133.55 24.18Q140.11 24.18 143.70 21.08Q147.29 17.97 147.29 12.16L147.29 12.16Q147.29 8.91 145.66 6.86Q144.04 4.80 141.36 3.41Q138.68 2.01 135.26 1.04Q131.84 0.07 128.31-1.07Q124.77-2.21 121.35-3.80Q117.93-5.40 115.25-7.96Q112.57-10.53 110.95-14.38Q109.33-18.22 109.33-23.87L109.33-23.87Q109.33-28.37 111.12-32.65Q112.92-36.92 116.37-40.23Q119.81-43.53 124.83-45.53Q129.85-47.52 136.29-47.52L136.29-47.52Q143.58-47.52 149.74-45.24Q155.89-42.96 160.23-38.86L160.23-38.86ZM206.63 23.44L206.63 23.44Q211.07 23.44 214.58 21.96Q218.08 20.48 220.50 17.80Q222.93 15.12 224.21 11.30Q225.49 7.48 225.49 2.75L225.49 2.75L225.49-46.61L240.82-46.61L240.82 2.75Q240.82 10.10 238.46 16.35Q236.09 22.59 231.65 27.12Q227.20 31.65 220.88 34.19Q214.55 36.72 206.63 36.72L206.63 36.72Q198.70 36.72 192.38 34.19Q186.05 31.65 181.63 27.12Q177.21 22.59 174.85 16.35Q172.48 10.10 172.48 2.75L172.48 2.75L172.48-46.61L187.81-46.61L187.81 2.69Q187.81 7.43 189.10 11.24Q190.38 15.06 192.77 17.77Q195.17 20.48 198.67 21.96Q202.18 23.44 206.63 23.44ZM297.82 1.61L297.82 1.61Q298.79 3.44 299.62 5.40Q300.45 7.37 301.25 9.36L301.25 9.36Q302.04 7.31 302.90 5.32Q303.75 3.32 304.72 1.50L304.72 1.50L329.12-44.16Q329.57-45.01 330.06-45.53Q330.54-46.04 331.14-46.27Q331.74-46.50 332.48-46.55Q333.22-46.61 334.25-46.61L334.25-46.61L345.82-46.61L345.82 35.81L332.31 35.81L332.31-17.43Q332.31-18.91 332.40-20.68Q332.48-22.44 332.65-24.27L332.65-24.27L307.74 22.47Q306.89 24.07 305.52 24.95Q304.15 25.84 302.33 25.84L302.33 25.84L300.22 25.84Q298.39 25.84 297.03 24.95Q295.66 24.07 294.80 22.47L294.80 22.47L269.55-24.44Q269.78-22.56 269.87-20.76Q269.95-18.97 269.95-17.43L269.95-17.43L269.95 35.81L256.44 35.81L256.44-46.61L268.01-46.61Q269.04-46.61 269.78-46.55Q270.52-46.50 271.12-46.27Q271.72-46.04 272.23-45.53Q272.75-45.01 273.20-44.16L273.20-44.16L297.82 1.61Z"/></g>
</svg>